TITLE ""
FILE "P1Q_t_0110-0119.mp3" MP3
  TRACK 01 AUDIO
    TITLE "P1Q_t_0110-0119_01"
    INDEX 01 00:00:00
  TRACK 02 AUDIO
    TITLE "P1Q_t_0110-0119_02"
    INDEX 01 00:01:22
  TRACK 03 AUDIO
    TITLE "P1Q_t_0110-0119_03"
    INDEX 01 00:01:41
  TRACK 04 AUDIO
    TITLE "P1Q_t_0110-0119_04"
    INDEX 01 00:05:10
  TRACK 05 AUDIO
    TITLE "P1Q_t_0110-0119_05"
    INDEX 01 00:05:27
  TRACK 06 AUDIO
    TITLE "P1Q_t_0110-0119_06"
    INDEX 01 00:10:52
  TRACK 07 AUDIO
    TITLE "P1Q_t_0110-0119_07"
    INDEX 01 00:11:22
  TRACK 08 AUDIO
    TITLE "P1Q_t_0110-0119_08"
    INDEX 01 00:12:43
  TRACK 09 AUDIO
    TITLE "P1Q_t_0110-0119_09"
    INDEX 01 00:12:62
  TRACK 10 AUDIO
    TITLE "P1Q_t_0110-0119_10"
    INDEX 01 00:16:37
  TRACK 11 AUDIO
    TITLE "P1Q_t_0110-0119_11"
    INDEX 01 00:16:56
  TRACK 12 AUDIO
    TITLE "P1Q_t_0110-0119_12"
    INDEX 01 00:21:34
  TRACK 13 AUDIO
    TITLE "P1Q_t_0110-0119_13"
    INDEX 01 00:22:04
  TRACK 14 AUDIO
    TITLE "P1Q_t_0110-0119_14"
    INDEX 01 00:23:15
  TRACK 15 AUDIO
    TITLE "P1Q_t_0110-0119_15"
    INDEX 01 00:23:37
  TRACK 16 AUDIO
    TITLE "P1Q_t_0110-0119_16"
    INDEX 01 00:26:35
  TRACK 17 AUDIO
    TITLE "P1Q_t_0110-0119_17"
    INDEX 01 00:26:55
  TRACK 18 AUDIO
    TITLE "P1Q_t_0110-0119_18"
    INDEX 01 00:31:48
  TRACK 19 AUDIO
    TITLE "P1Q_t_0110-0119_19"
    INDEX 01 00:32:18
  TRACK 20 AUDIO
    TITLE "P1Q_t_0110-0119_20"
    INDEX 01 00:33:31
  TRACK 21 AUDIO
    TITLE "P1Q_t_0110-0119_21"
    INDEX 01 00:33:55
  TRACK 22 AUDIO
    TITLE "P1Q_t_0110-0119_22"
    INDEX 01 00:38:50
  TRACK 23 AUDIO
    TITLE "P1Q_t_0110-0119_23"
    INDEX 01 00:38:70
  TRACK 24 AUDIO
    TITLE "P1Q_t_0110-0119_24"
    INDEX 01 00:43:10
  TRACK 25 AUDIO
    TITLE "P1Q_t_0110-0119_25"
    INDEX 01 00:43:55
  TRACK 26 AUDIO
    TITLE "P1Q_t_0110-0119_26"
    INDEX 01 00:44:68
  TRACK 27 AUDIO
    TITLE "P1Q_t_0110-0119_27"
    INDEX 01 00:45:15
  TRACK 28 AUDIO
    TITLE "P1Q_t_0110-0119_28"
    INDEX 01 00:46:52
  TRACK 29 AUDIO
    TITLE "P1Q_t_0110-0119_29"
    INDEX 01 00:46:71
  TRACK 30 AUDIO
    TITLE "P1Q_t_0110-0119_30"
    INDEX 01 00:51:72
  TRACK 31 AUDIO
    TITLE "P1Q_t_0110-0119_31"
    INDEX 01 00:52:44
  TRACK 32 AUDIO
    TITLE "P1Q_t_0110-0119_32"
    INDEX 01 00:53:54
  TRACK 33 AUDIO
    TITLE "P1Q_t_0110-0119_33"
    INDEX 01 00:53:73
  TRACK 34 AUDIO
    TITLE "P1Q_t_0110-0119_34"
    INDEX 01 00:56:62
  TRACK 35 AUDIO
    TITLE "P1Q_t_0110-0119_35"
    INDEX 01 00:57:06
  TRACK 36 AUDIO
    TITLE "P1Q_t_0110-0119_36"
    INDEX 01 01:01:02
  TRACK 37 AUDIO
    TITLE "P1Q_t_0110-0119_37"
    INDEX 01 01:01:51
  TRACK 38 AUDIO
    TITLE "P1Q_t_0110-0119_38"
    INDEX 01 01:02:70
  TRACK 39 AUDIO
    TITLE "P1Q_t_0110-0119_39"
    INDEX 01 01:03:17
  TRACK 40 AUDIO
    TITLE "P1Q_t_0110-0119_40"
    INDEX 01 01:06:50
  TRACK 41 AUDIO
    TITLE "P1Q_t_0110-0119_41"
    INDEX 01 01:06:70
  TRACK 42 AUDIO
    TITLE "P1Q_t_0110-0119_42"
    INDEX 01 01:11:65
  TRACK 43 AUDIO
    TITLE "P1Q_t_0110-0119_43"
    INDEX 01 01:12:39
  TRACK 44 AUDIO
    TITLE "P1Q_t_0110-0119_44"
    INDEX 01 01:13:39
  TRACK 45 AUDIO
    TITLE "P1Q_t_0110-0119_45"
    INDEX 01 01:13:60
  TRACK 46 AUDIO
    TITLE "P1Q_t_0110-0119_46"
    INDEX 01 01:15:41
  TRACK 47 AUDIO
    TITLE "P1Q_t_0110-0119_47"
    INDEX 01 01:15:61
  TRACK 48 AUDIO
    TITLE "P1Q_t_0110-0119_48"
    INDEX 01 01:20:62
  TRACK 49 AUDIO
    TITLE "P1Q_t_0110-0119_49"
    INDEX 01 01:21:36
  TRACK 50 AUDIO
    TITLE "P1Q_t_0110-0119_50"
    INDEX 01 01:22:57
  TRACK 51 AUDIO
    TITLE "P1Q_t_0110-0119_51"
    INDEX 01 01:23:06
  TRACK 52 AUDIO
    TITLE "P1Q_t_0110-0119_52"
    INDEX 01 01:24:38
  TRACK 53 AUDIO
    TITLE "P1Q_t_0110-0119_53"
    INDEX 01 01:24:58
  TRACK 54 AUDIO
    TITLE "P1Q_t_0110-0119_54"
    INDEX 01 01:30:06
  TRACK 55 AUDIO
    TITLE "P1Q_t_0110-0119_55"
    INDEX 01 01:30:51
  TRACK 56 AUDIO
    TITLE "P1Q_t_0110-0119_56"
    INDEX 01 01:31:74
  TRACK 57 AUDIO
    TITLE "P1Q_t_0110-0119_57"
    INDEX 01 01:32:20
  TRACK 58 AUDIO
    TITLE "P1Q_t_0110-0119_58"
    INDEX 01 01:33:67
  TRACK 59 AUDIO
    TITLE "P1Q_t_0110-0119_59"
    INDEX 01 01:34:11
  TRACK 60 AUDIO
    TITLE "P1Q_t_0110-0119_60"
    INDEX 01 01:39:03
